<?xml version="1.0" encoding="utf-8"?>
<!-- Generator: Adobe Illustrator 24.0.3, SVG Export Plug-In . SVG Version: 6.00 Build 0)  -->
<svg version="1.1" id="master-artboard" xmlns="http://www.w3.org/2000/svg" xmlns:xlink="http://www.w3.org/1999/xlink" x="0px"
	 y="0px" viewBox="0 0 1400 980" style="enable-background:new 0 0 1400 980;" xml:space="preserve">
<style type="text/css">
	.st0{fill:#BBBDBF;}
	.st1{fill:#F1F1F2;}
	.st2{fill:#404041;}
</style>
<g transform="matrix(6.970023155212403, 0, 0, 6.9700231552124015, -548.3850753284485, -1233.6817530140227)">
	<path class="st0" d="M143.9,290.1c0,0,0.4,6.2,3.4,6.6s15.5-6.3,36.5-3.3s23.2,11.3,28.3,14.7c5,3.5,7.9-1.4,9.5-3.1l0.4-1.5
		l-0.4-2.2l-2.1-2.8l-12.5-6.4c0,0-15.7-16.9-17.5-18s-23.5-8.7-23.5-8.7l-13.4,8.8L143.9,290.1z"/>
	<path class="st1" d="M110.5,254.1c0,0-3.1,27.4,18.1,23.8c0,0-0.1,13.9,5.2,16.2c5.4,2.3,30.9-22.1,40.7-17.6
		c9.8,4.4,6,24.2,18.9,27.8c12.9,3.6,19.3-7,24.5-4.6c5.2,2.3,3.6,5.4,3.6,5.4s1-0.6,0.8-2.2c-0.1-1.6-2.8-9.7-3.2-14.8
		c-0.4-5.1-2.6-30.1-0.6-37.5c2-7.3,5.7-23.2,5.2-32.9s-3.8-33.4-25.4-33.6c-21.6-0.2-30.4,19.7-33.3,31.5
		c-2.9,11.8-5.5,22.9-18.4,31.1C133.7,254.9,110.5,254.1,110.5,254.1z"/>
	<path class="st2" d="M209.7,207.8c-0.5,2.8-1.7,5-2.8,4.8c-1.1-0.2-1.6-2.6-1.1-5.5c0.5-2.8,1.7-5,2.8-4.8
		C209.6,202.6,210.1,205,209.7,207.8z"/>
	<path class="st2" d="M215.6,210.6c-0.5,2.8-1.7,5-2.8,4.8c-1.1-0.2-1.6-2.6-1.1-5.5s1.7-5,2.8-4.8
		C215.5,205.4,216,207.8,215.6,210.6z"/>
</g>
</svg>
